<svg width="20" height="20" viewBox="0 0 20 20" fill="none" xmlns="http://www.w3.org/2000/svg">
<path d="M1.81152 0V2.64523H4.01426V3.81484H1.81152V6.03043H4.01426V7.20004H1.81152V9.41523H4.01426V10.5848H1.81152V12.8H4.01426V13.9696H1.81152V16.1852H4.01426V17.3548H1.81152V20H19.2186V0H1.81152ZM8.26113 16.629L6.55527 14.9266L7.38391 14.0995L8.26113 14.975L10.1564 13.0834L10.985 13.9105L8.26113 16.629ZM8.26113 11.7014L6.55531 9.99895L7.38395 9.17191L8.26113 10.0474L10.1564 8.15582L10.985 8.98285L8.26113 11.7014ZM8.26113 6.77387L6.55531 5.07137L7.38395 4.24434L8.26113 5.1198L10.1564 3.22824L10.985 4.05527L8.26113 6.77387ZM16.5813 15.8271H12.7812V14.6575H16.5813V15.8271ZM16.5813 10.5882H12.7812V9.41855H16.5813V10.5882ZM16.5813 5.73242H12.7812V4.56281H16.5813V5.73242Z" fill="white"/>
<path d="M0.78125 12.8008H1.81172V13.9704H0.78125V12.8008Z" fill="white"/>
<path d="M0.78125 16.1846H1.81172V17.3542H0.78125V16.1846Z" fill="white"/>
<path d="M0.78125 6.03027H1.81172V7.19988H0.78125V6.03027Z" fill="white"/>
<path d="M0.78125 9.41504H1.81172V10.5847H0.78125V9.41504Z" fill="white"/>
<path d="M0.78125 2.64551H1.81172V3.81512H0.78125V2.64551Z" fill="white"/>
</svg>
