<svg width="20" height="20" viewBox="0 0 20 20" fill="none" xmlns="http://www.w3.org/2000/svg">
<path d="M16.1328 6.17383V3.93381C16.1328 2.49301 14.9832 1.32031 13.5424 1.32031H6.48035C5.03952 1.32031 3.86637 2.49259 3.86637 3.93381V6.17341H1.13732C0.509221 6.17341 0 6.68262 0 7.3107V9.78298C0 10.4115 0.509221 10.9203 1.13732 10.9203H1.47624L2.71894 17.747C2.81716 18.2874 3.28844 18.6803 3.83771 18.6803H16.1855C16.7352 18.6803 17.2056 18.2874 17.3042 17.7466L18.5461 10.9203H18.8623C19.4904 10.9203 19.9996 10.4115 19.9996 9.78298V7.3107C19.9996 6.68262 19.4904 6.17341 18.8623 6.17341L16.1328 6.17383ZM5.97323 3.93381C5.97323 3.65897 6.2055 3.42713 6.48035 3.42713H13.5437C13.8181 3.42713 14.0268 3.65897 14.0268 3.93381V6.17341H5.97323V3.93381ZM7.54642 14.6158C7.54642 15.053 7.19696 15.4071 6.75983 15.4071C6.32311 15.4071 5.97323 15.053 5.97323 14.6158V10.2724C5.97323 9.83525 6.32311 9.48159 6.75983 9.48159C7.19739 9.48159 7.54642 9.8361 7.54642 10.2724V14.6158ZM10.7999 14.6158C10.7999 15.053 10.45 15.4071 10.0133 15.4071C9.57656 15.4071 9.22626 15.053 9.22626 14.6158V10.2724C9.22626 9.83525 9.57656 9.48159 10.0133 9.48159C10.4504 9.48159 10.7999 9.8361 10.7999 10.2724V14.6158ZM14.0533 14.6158C14.0533 15.053 13.7034 15.4071 13.2672 15.4071C12.83 15.4071 12.4801 15.053 12.4801 14.6158V10.2724C12.4801 9.83525 12.83 9.48159 13.2672 9.48159C13.7034 9.48159 14.0533 9.8361 14.0533 10.2724V14.6158Z" fill="white"/>
</svg>
